<svg xmlns="http://www.w3.org/2000/svg" viewBox="0 0 320 28" fill="none" aria-hidden="true">
  <path
    fill="#ff2d9a"
    d="M4.2 16.4c18.6-6.8 39.4-9.8 59.8-10.6 22.2-.9 44.6.6 66.6 2.4 19.8 1.6 39.4 4.2 59.2 4.8 16.4.5 32.8-.6 49-2.8 14.8-2 29.4-5.2 44.2-5.6 6.2-.2 12.2.8 14.8 3.4 2.2 2.2.6 5.4-2.4 7.2-9.8 5.8-22.2 6.4-33.6 7.2-18.2 1.2-36.4.4-54.6-.2-24.2-.8-48.4-1.2-72.6.6-21.2 1.6-42.2 5.2-63.6 5.8-12.2.4-24.6-.6-35.8-4.2-4.2-1.4-7.2-3.8-6.4-6.4 0-.4.2-.8.4-1.2z"
  />
  <path
    fill="#ff4db0"
    opacity="0.55"
    d="M18 12.2c24-4.8 49.2-5.6 73.6-4.2 20.2 1.2 40.2 4 60.4 4.6 14.6.4 29.2-.4 43.6-2.2 3.2-.4 6.2.8 6.8 2.6.6 2-1.6 3.8-4.6 4.4-16.8 3.4-34.4 2.2-51.6 1.6-22.8-.8-45.6-1.4-68.2.8-12.8 1.2-25.6 3.6-38.6 3.2-5.2-.2-9.2-2-9.6-4.2-.2-1.2.6-2.4 1.8-3z"
  />
</svg>
